<svg width="41" height="41" viewBox="0 0 41 41" fill="none" xmlns="http://www.w3.org/2000/svg">
<circle cx="20.0368" cy="20.9631" r="20" transform="rotate(-0.105619 20.0368 20.9631)" fill="#ED7C00"/>
<path d="M27.8842 28.8236L27.8804 26.7403C27.8783 25.6352 27.4374 24.5762 26.6546 23.7963C25.8717 23.0163 24.8111 22.5793 23.706 22.5813L15.3727 22.5967C14.2676 22.5987 13.2087 23.0397 12.4287 23.8225C11.6487 24.6053 11.2117 25.666 11.2137 26.771L11.2176 28.8544" stroke="white" stroke-width="2" stroke-linecap="round" stroke-linejoin="round"/>
<path d="M19.5316 18.4223C21.8328 18.4181 23.6949 16.5492 23.6906 14.248C23.6864 11.9468 21.8175 10.0848 19.5163 10.089C17.2151 10.0933 15.353 11.9622 15.3573 14.2634C15.3615 16.5646 17.2304 18.4266 19.5316 18.4223Z" stroke="white" stroke-width="2" stroke-linecap="round" stroke-linejoin="round"/>
</svg>
